<?xml version="1.0" encoding="UTF-8" standalone="no"?>
<!-- Created with Inkscape (http://www.inkscape.org/) -->

<svg
   version="1.1"
   id="svg1"
   width="556"
   height="373"
   viewBox="0 0 556 373"
   xmlns="http://www.w3.org/2000/svg"
   xmlns:svg="http://www.w3.org/2000/svg">
  <defs
     id="defs1" />
  <g
     id="layer1">
    <rect
       style="opacity:1;fill:#fcb712;fill-opacity:1;fill-rule:nonzero;stroke-width:1.0043"
       id="rect15"
       width="557.41223"
       height="374.52383"
       x="-0.51641428"
       y="-0.33089471" />
  </g>
  <g
     id="g1"
     style="mix-blend-mode:normal">
    <path
       d="m 131.13871,232.19104 c 9.81472,-0.6718 16.59258,15.3591 24.48042,25.28514 8.14489,4.06226 9.77264,0.88326 13.52561,0.0656 10.94762,-8.99902 16.12947,-24.91696 34.15767,-25.41927 h 224.25444 c 0,0 16.38135,0 16.38135,17.51105 0,17.51106 0.5648,68.91447 0.5648,68.91447 0,0 -5.6487,41.2357 -41.80055,42.36545 -36.15185,1.12974 -356.999528,-0.56488 -356.999528,-0.56488 0,0 -35.02211,-2.82436 -36.1518496,-37.84646 -1.12974,-35.02211 2.0876256,-146.4823 3.3892366,-150.821 C 11.860985,163.40632 39.489332,12.951917 227.02706,11.257299 414.56478,9.5626811 435.562,159.47617 435.562,159.47617 c 0,0 1.42392,26.76291 -30.77382,11.22892 0,0 -35.70191,-58.75269 -77.65886,-90.420608 C 287.31543,50.234084 260.07018,47.638374 236.06035,48.729886 215.00408,47.422108 203.1405,48.202771 168.93483,55.901481 148.35939,60.532419 117.94644,76.231319 98.3998,96.008144 78.996841,115.6396 79.044393,113.87253 62.709772,142.59483 53.75369,158.34293 49.528737,226.07472 49.528737,226.07472 l 0.213909,89.44287 348.634154,-1.26975 0.0499,-41.19072 -60.71265,0.34949 -0.39943,17.67457 c 0,0 0.0914,7.95762 -7.23958,8.13829 -8.44725,0.20817 -7.4393,-8.28808 -7.4393,-8.28808 l -0.29956,-15.32794 -5.39225,0.19971 -1.09841,18.22378 c 0,0 -0.38883,9.27399 -9.18678,9.13686 -8.13795,-0.12685 -7.88865,-10.18535 -7.88865,-10.18535 l -0.39943,-19.77155 -8.93715,0.0499 c 0,0 -0.34949,17.97414 -7.639,17.97414 -6.79317,-10e-6 -7.88865,-8.38794 -7.88865,-8.38794 l -0.44935,-9.48635 -8.38793,0.0499 -0.74893,23.16667 c 0,0 -0.55086,6.04589 -9.08693,6.19109 -8.78835,0.1495 -9.33655,-8.38793 -9.33655,-8.38793 l -0.24965,-21.56897 -155.775868,-0.79885 c -0.039,-13.23549 -0.289823,-28.70428 -0.328821,-39.84769 13.794359,-0.10775 27.802009,0.0563 41.596879,0.0302 z"
       id="path14"
       style="fill:#000000" />
    <path
       style="opacity:1;fill:#000000;fill-opacity:1;fill-rule:nonzero;stroke:none"
       d="m 131.13871,232.19104 c 1.202,-0.0823 2.38116,0.0844 3.54627,0.48647 1.11932,0.38629 2.21913,0.98753 3.31014,1.78506 1.05201,0.76902 2.08858,1.71513 3.12266,2.8164 1.00031,1.06532 1.98952,2.26635 2.9837,3.58043 1.92974,2.55066 3.76095,5.36463 5.7451,8.38396 1.82916,2.78349 3.77307,5.71668 5.77255,8.23282 1.99527,0.99514 3.63219,1.57223 5.02174,1.839 1.33402,0.25611 2.41917,0.22283 3.38804,0.0238 0.93827,-0.19278 1.73556,-0.53243 2.56454,-0.89121 0.78769,-0.34092 1.60575,-0.69995 2.55128,-0.90596 2.7099,-2.22755 5.0678,-4.87721 7.42046,-7.69759 2.24534,-2.69172 4.54315,-5.61337 7.00314,-8.19828 2.42162,-2.54459 5.10669,-4.88456 8.33081,-6.60521 1.58596,-0.84641 3.3096,-1.54715 5.20852,-2.05084 1.87708,-0.49789 3.929,-0.80422 6.19473,-0.86735 71.7716,0 146.63511,0 224.25446,0 10e-6,0 1.01118,-0.002 2.55959,0.27361 1.51779,0.27041 3.57149,0.81446 5.63108,1.91527 1.01956,0.54494 2.04445,1.22838 3.00749,2.08626 0.95606,0.85165 1.85319,1.87702 2.6236,3.11233 1.52336,2.44262 2.55959,5.7194 2.55959,10.12358 0,4.35278 0.0349,10.81851 0.0883,18.15536 0.0527,7.24413 0.12301,15.29084 0.19415,22.86852 0.13903,14.80857 0.2824,27.89059 0.2824,27.89059 0,0 -0.34738,2.55712 -1.44748,6.46073 -1.08634,3.85475 -2.91932,9.05398 -5.89585,14.29834 -2.94826,5.19455 -7.0391,10.46981 -12.67432,14.51016 -2.79987,2.00746 -5.98537,3.71321 -9.60715,4.95143 -3.60595,1.23281 -7.64754,2.00328 -12.17575,2.14479 -2.25712,0.0705 -5.62617,0.13013 -9.96667,0.17983 -4.33167,0.0496 -9.62951,0.0893 -15.75269,0.12026 -12.20986,0.0617 -27.6926,0.0883 -45.31338,0.0883 -35.04714,0 -78.44896,-0.10522 -121.02397,-0.24714 -83.83619,-0.27945 -164.942818,-0.70609 -164.942818,-0.70609 -2e-6,0 -2.177909,-0.17382 -5.489857,-0.98853 -3.285293,-0.80814 -7.703461,-2.25345 -12.16235,-4.80138 -4.431842,-2.53248 -8.923566,-6.16544 -12.374307,-11.36809 -1.718448,-2.59091 -3.180392,-5.57355 -4.247545,-9.00697 -1.064206,-3.42397 -1.7363899,-7.29805 -1.8777906,-11.68149 -0.141039,-4.3723 -0.2144865,-9.9408 -0.2321141,-16.35781 -0.017581,-6.40001 0.020373,-13.64102 0.1020342,-21.37279 0.1627138,-15.40598 0.4988599,-32.74719 0.9129415,-49.18618 0.411917,-16.35304 0.900639,-31.7973 1.368819,-43.43302 0.233239,-5.79669 0.461317,-10.64617 0.671883,-14.18138 0.10511,-1.76471 0.205861,-3.20199 0.3007,-4.2658 0.04739,-0.53152 0.09329,-0.96977 0.137528,-1.30906 0.02211,-0.16957 0.0438,-0.31442 0.06505,-0.43382 0.01062,-0.0597 0.02114,-0.11304 0.03154,-0.15992 0.0104,-0.0469 0.02068,-0.0873 0.03085,-0.12122 -0.01686,-0.12928 -0.02672,-0.29327 -0.02907,-0.49091 -0.0023,-0.19758 0.0028,-0.42878 0.01599,-0.69252 0.02634,-0.52723 0.0847,-1.18453 0.179143,-1.96314 0.18875,-1.55608 0.521652,-3.59717 1.031114,-6.05291 1.017144,-4.90289 2.739524,-11.46552 5.426043,-19.11938 5.354185,-15.254 14.559345,-34.90217 29.688759,-54.360636 15.07459,-19.387958 36.066092,-38.63286 65.05445,-53.126849 28.89201,-14.445718 65.76972,-24.193238 112.72027,-24.617496 46.82417,-0.423015 83.3114,8.604445 111.70111,22.444281 28.30934,13.80075 48.5232,32.365108 62.89305,51.029673 14.33272,18.616407 22.82203,37.293907 27.72974,51.347417 4.8933,14.01227 6.21109,23.39749 6.21109,23.3975 0,2e-5 0.0893,1.67052 -0.2806,3.93895 -0.1847,1.13257 -0.48407,2.41427 -0.96679,3.70983 -0.48233,1.29449 -1.14786,2.60327 -2.06537,3.79093 -0.91679,1.18674 -2.0854,2.25285 -3.57463,3.06277 -1.48816,0.80933 -3.29674,1.36299 -5.4946,1.52532 -2.1964,0.16223 -4.78186,-0.0663 -7.82524,-0.82142 -3.04152,-0.75461 -6.54071,-2.03516 -10.56646,-3.9774 -1.3e-4,-6e-5 -8.9106,-14.66847 -23.09559,-33.33475 -7.08292,-9.32053 -15.47941,-19.63433 -24.72861,-29.59779 -9.24589,-9.959888 -19.34436,-19.570246 -29.83479,-27.488127 -9.95329,-7.512464 -19.12123,-13.30919 -27.64963,-17.761412 -8.52898,-4.452527 -16.41752,-7.559934 -23.81138,-9.694103 -7.39599,-2.134785 -14.2969,-3.295726 -20.84801,-3.854986 -6.55448,-0.559542 -12.75987,-0.516863 -18.75986,-0.2441 -5.26683,-0.327105 -9.9554,-0.523354 -14.56139,-0.513784 -4.6104,0.0096 -9.1362,0.225397 -14.07043,0.722152 -9.88674,0.995357 -21.41531,3.119359 -38.49379,6.963231 -5.14869,1.158822 -10.90828,3.009515 -16.95262,5.439227 -6.05666,2.434667 -12.39802,5.450181 -18.7007,8.934397 -12.65452,6.995612 -25.13116,15.867668 -34.88171,25.733039 -4.857575,4.914776 -8.49012,8.482716 -11.465088,11.522066 -2.984363,3.04896 -5.305573,5.56435 -7.530519,8.36217 -2.23126,2.80576 -4.36362,5.89328 -6.955227,10.06673 -2.59945,4.18608 -5.66359,9.4693 -9.739132,16.63561 -0.560079,0.98483 -1.101352,2.17236 -1.624008,3.53284 -0.523154,1.36176 -1.027703,2.89692 -1.513772,4.57562 -0.973582,3.3624 -1.873283,7.3015 -2.700141,11.57898 -1.658496,8.57974 -3.026209,18.53256 -4.111189,27.95815 -2.185798,18.9888 -3.231982,35.83433 -3.231987,35.83441 0.07209,30.14215 0.143443,59.97843 0.213909,89.44286 117.829924,-0.42913 234.133744,-0.85272 348.634144,-1.26974 0.0169,-13.96948 0.0336,-27.71175 0.0499,-41.19069 -10.22396,0.0588 -20.34517,0.11709 -30.35632,0.17472 -10.01115,0.0576 -20.13234,0.11589 -30.35633,0.17474 -0.13071,5.7837 -0.26397,11.68038 -0.39943,17.67455 0,2e-5 0.006,0.49403 -0.10027,1.24622 -0.10539,0.74472 -0.32241,1.74643 -0.7704,2.75519 -0.22295,0.50201 -0.50348,1.00666 -0.85664,1.4825 -0.35195,0.4742 -0.77636,0.92025 -1.28833,1.30657 -0.51025,0.38502 -1.10789,0.71102 -1.80807,0.94627 -0.69789,0.23447 -1.4981,0.37894 -2.41584,0.40156 -1.05438,0.026 -1.96279,-0.0836 -2.74497,-0.29636 -0.77977,-0.2121 -1.43352,-0.52657 -1.98112,-0.91082 -0.54597,-0.38311 -0.98597,-0.83528 -1.33995,-1.32374 -0.35295,-0.48703 -0.62005,-1.0097 -0.82136,-1.53506 -0.40113,-1.04686 -0.53979,-2.10127 -0.57743,-2.89781 -0.0374,-0.79088 0.0255,-1.32429 0.0255,-1.32429 -0.0989,-5.06251 -0.19886,-10.17538 -0.29956,-15.32794 -1.78506,0.0661 -3.58367,0.13273 -5.39225,0.19971 -0.36439,6.04553 -0.73076,12.12402 -1.09841,18.22378 0,0 -0.0241,0.57881 -0.19822,1.4469 -0.17374,0.86642 -0.49715,2.02168 -1.09594,3.17295 -0.29913,0.57514 -0.66708,1.14945 -1.11956,1.6863 -0.45226,0.53656 -0.989,1.03575 -1.62599,1.46093 -0.63668,0.42497 -1.37355,0.77604 -2.22635,1.01655 -0.85243,0.24041 -1.82076,0.37037 -2.92072,0.35323 -1.01708,-0.0159 -1.90328,-0.18684 -2.67542,-0.47406 -0.77194,-0.28715 -1.42978,-0.69043 -1.99039,-1.17093 -0.56045,-0.48035 -1.02365,-1.03783 -1.40646,-1.63346 -0.38272,-0.59551 -0.68503,-1.22911 -0.92379,-1.86179 -0.47742,-1.26516 -0.70059,-2.52639 -0.80439,-3.4715 -0.10378,-0.94498 -0.0882,-1.57361 -0.0882,-1.57361 -0.13327,-6.59668 -0.26649,-13.19131 -0.39943,-19.77155 -2.98749,0.0167 -5.96842,0.0333 -8.93714,0.0499 -10e-6,10e-6 -0.022,1.12526 -0.16851,2.80843 -0.14694,1.68819 -0.41861,3.93393 -0.91743,6.17864 -0.24983,1.12422 -0.55646,2.24739 -0.93264,3.29994 -0.3767,1.05397 -0.82298,2.03667 -1.35157,2.87867 -0.52934,0.8432 -1.14102,1.54498 -1.84774,2.03613 -0.35372,0.24584 -0.73122,0.43887 -1.13406,0.57047 -0.40313,0.1317 -0.83162,0.20186 -1.28703,0.20186 -0.84981,0 -1.60987,-0.13126 -2.28938,-0.36042 -0.6806,-0.22954 -1.2806,-0.55737 -1.80912,-0.9502 -1.05953,-0.78751 -1.833,-1.83714 -2.39329,-2.88334 -0.56231,-1.04999 -0.91132,-2.09922 -1.11958,-2.88337 -0.20933,-0.78819 -0.27731,-1.31061 -0.27731,-1.31061 -0.15117,-3.19144 -0.30106,-6.35579 -0.44935,-9.48635 -2.82931,0.0168 -5.6274,0.0335 -8.38793,0.0499 -0.25339,7.83819 -0.50324,15.56675 -0.74893,23.16667 0,0 -0.0353,0.38068 -0.21945,0.94694 -0.18631,0.57305 -0.52274,1.33203 -1.12299,2.09415 -0.60607,0.76953 -1.47663,1.53658 -2.7235,2.12139 -1.25964,0.59078 -2.89671,0.99247 -5.02096,1.02861 -1.10137,0.0187 -2.07086,-0.099 -2.92443,-0.3175 -0.85828,-0.2197 -1.60034,-0.54154 -2.24202,-0.93004 -0.64532,-0.39071 -1.19001,-0.84937 -1.64979,-1.34076 -0.46247,-0.49425 -0.83982,-1.02244 -1.14769,-1.54959 -0.62065,-1.06272 -0.96271,-2.12773 -1.14968,-2.9184 -0.18993,-0.80323 -0.22297,-1.33164 -0.22297,-1.33164 -0.0857,-7.40302 -0.169,-14.60143 -0.24965,-21.56897 -53.91743,-0.2765 -105.92054,-0.54318 -155.775876,-0.79885 -0.01975,-6.70569 -0.09456,-14.0434 -0.164403,-20.70837 -0.07557,-7.21187 -0.145153,-13.63681 -0.16441,-19.13932 14.821219,-0.11577 28.868639,0.0543 41.596879,0.0302 z m 0,0 c 0,1e-5 0,2e-5 0,3e-5 -12.72824,0.0241 -26.77566,-0.14597 -41.596844,-0.0302 0.01922,5.50251 0.0888,11.92745 0.164375,19.13932 0.06984,6.66497 0.144652,14.00268 0.164411,20.70835 49.855328,0.25569 101.858438,0.52237 155.775868,0.79887 0.0806,6.96754 0.16396,14.16595 0.24965,21.56897 0,0 0.033,0.52841 0.22297,1.33163 0.18697,0.79068 0.52903,1.85569 1.14967,2.9184 0.30788,0.52716 0.68523,1.05535 1.14769,1.54959 0.45979,0.4914 1.00448,0.95006 1.6498,1.34077 0.64168,0.3885 1.38374,0.71034 2.24202,0.93004 0.85357,0.2185 1.82306,0.33623 2.9244,0.3175 2.12428,-0.0361 3.76135,-0.43783 5.02097,-1.02861 1.24689,-0.58481 2.11745,-1.35186 2.72352,-2.12139 0.60025,-0.76212 0.93668,-1.5211 1.12299,-2.09415 0.18411,-0.56626 0.21945,-0.94694 0.21945,-0.94694 0.24569,-7.59992 0.49554,-15.32848 0.74893,-23.16667 2.76053,-0.0164 5.55862,-0.0331 8.38793,-0.0499 0.14829,3.13056 0.29818,6.29491 0.44935,9.48635 0,0 0.068,0.52242 0.27731,1.31061 0.20826,0.78415 0.55727,1.83338 1.11958,2.88336 0.56029,1.04621 1.33376,2.09584 2.39329,2.88335 0.52852,0.39283 1.12852,0.72066 1.80912,0.9502 0.67951,0.22916 1.43957,0.36042 2.28935,0.36042 0.45544,0 0.88393,-0.0702 1.28706,-0.20186 0.40284,-0.1316 0.78034,-0.32463 1.13406,-0.57047 0.70672,-0.49115 1.3184,-1.19293 1.84774,-2.03613 0.52859,-0.842 0.97487,-1.8247 1.35157,-2.87867 0.37618,-1.05255 0.68281,-2.17572 0.93264,-3.29994 0.49882,-2.24471 0.77049,-4.49045 0.91742,-6.17861 0.1465,-1.6832 0.16851,-2.80845 0.16851,-2.80846 2.96873,-0.0166 5.94966,-0.0332 8.93715,-0.0499 0.13294,6.58024 0.26616,13.17487 0.39943,19.77155 0,0 -0.0156,0.62863 0.0882,1.57361 0.1038,0.94511 0.32697,2.20634 0.80439,3.4715 0.23876,0.63268 0.54107,1.26628 0.92379,1.86179 0.38281,0.59563 0.84601,1.15311 1.40646,1.63346 0.56061,0.4805 1.21845,0.88378 1.99036,1.17092 0.77217,0.28723 1.65837,0.45821 2.67542,0.47407 1.09999,0.0171 2.06832,-0.11282 2.92075,-0.35323 0.8528,-0.24051 1.58967,-0.59158 2.22633,-1.01654 0.63701,-0.42519 1.17375,-0.92438 1.62599,-1.46093 0.4525,-0.53686 0.82045,-1.11117 1.11958,-1.68631 0.59879,-1.15127 0.9222,-2.30653 1.09594,-3.17293 0.17408,-0.86811 0.19822,-1.44692 0.19822,-1.44692 0.36765,-6.09976 0.73402,-12.17825 1.09841,-18.22378 1.80858,-0.067 3.60719,-0.1336 5.39225,-0.19971 0.1007,5.15256 0.20062,10.26543 0.29956,15.32794 0,0 -0.0629,0.53341 -0.0255,1.32429 0.0376,0.79654 0.1763,1.85095 0.57743,2.8978 0.20131,0.52537 0.46841,1.04804 0.82136,1.53507 0.35398,0.48846 0.79398,0.94063 1.33994,1.32373 0.54761,0.38426 1.20136,0.69873 1.9811,0.91082 0.78221,0.21276 1.69062,0.32235 2.74497,0.29637 0.91777,-0.0226 1.71798,-0.16709 2.41585,-0.40156 0.7002,-0.23525 1.29784,-0.56125 1.80809,-0.94627 0.51197,-0.38632 0.93638,-0.83237 1.28832,-1.30656 0.35317,-0.47585 0.6337,-0.9805 0.85664,-1.48249 0.448,-1.00878 0.66502,-2.01049 0.77041,-2.75521 0.10646,-0.75219 0.10027,-1.2462 0.10027,-1.2462 0.13546,-5.99419 0.26872,-11.89087 0.39943,-17.67456 10.22399,-0.0589 20.34518,-0.11713 30.35633,-0.17475 10.01115,-0.0576 20.13236,-0.1159 30.35636,-0.17475 -0.0164,13.47897 -0.033,27.22124 -0.0499,41.19072 -114.50041,0.41702 -230.80423,0.84061 -348.63372,1.26975 -0.0709,-29.46444 -0.142256,-59.30072 -0.214343,-89.44287 5e-6,-8e-5 1.046189,-16.84561 3.23197,-35.83426 1.084997,-9.42574 2.45271,-19.37856 4.111181,-27.95817 0.826883,-4.27761 1.726584,-8.21671 2.700136,-11.579 0.486099,-1.67881 0.990648,-3.21397 1.513802,-4.57573 0.522656,-1.36048 1.063929,-2.54801 1.623946,-3.53273 4.075604,-7.16642 7.139744,-12.44964 9.739194,-16.63572 2.591607,-4.17345 4.723967,-7.26097 6.955192,-10.06669 2.224981,-2.79786 4.546191,-5.31325 7.530508,-8.36216 2.975014,-3.0394 6.607559,-6.60734 11.465134,-11.522116 9.75055,-9.865371 22.22719,-18.737427 34.88171,-25.733039 6.30268,-3.484216 12.64404,-6.49973 18.7007,-8.934397 6.04434,-2.429712 11.80393,-4.280405 16.95262,-5.439227 17.07848,-3.843872 28.60705,-5.967874 38.49371,-6.963223 4.93431,-0.496763 9.46011,-0.712581 14.07051,-0.72216 4.60599,-0.0096 9.29456,0.186679 14.56122,0.513783 6.00016,-0.272762 12.20555,-0.315441 18.75992,0.244092 6.55122,0.559269 13.45213,1.72021 20.84812,3.854995 7.39386,2.134169 15.2824,5.241576 23.81138,9.694103 8.5284,4.452222 17.69634,10.248948 27.64963,17.761411 10.49043,7.917882 20.5889,17.52824 29.83464,27.487968 9.24935,9.96362 17.64584,20.27742 24.72865,29.59781 14.1851,18.66642 23.09557,33.33483 23.09557,33.33483 4.02588,1.9423 7.52507,3.22285 10.56659,3.97746 3.04338,0.75508 5.62884,0.98365 7.82524,0.82142 2.19786,-0.16233 4.00644,-0.71599 5.4946,-1.52532 1.48923,-0.80992 2.65784,-1.87603 3.57463,-3.06277 0.91751,-1.18766 1.58304,-2.49644 2.06535,-3.79089 0.48274,-1.2956 0.78211,-2.5773 0.96681,-3.70983 0.36994,-2.26847 0.2806,-3.93897 0.2806,-3.93899 0,-1e-5 -1.31779,-9.38523 -6.21109,-23.3975 C 424.4432,122.02516 415.95389,103.34766 401.6214,84.731542 387.25132,66.066688 367.03746,47.50233 338.72856,33.701795 310.33841,19.861744 273.85118,10.834284 227.02777,11.257293 180.07646,11.681557 143.19875,21.429077 114.30719,35.874572 85.318382,50.368784 64.32688,69.613686 49.25229,89.001644 34.122876,108.46011 24.917716,128.10828 19.563531,143.36228 c -2.686519,7.65386 -4.408899,14.21649 -5.426012,19.11923 -0.509493,2.45589 -0.842395,4.49698 -1.031134,6.05296 -0.09445,0.77871 -0.152818,1.43601 -0.179154,1.96324 -0.01317,0.26374 -0.01834,0.49494 -0.01599,0.69252 0.0023,0.19764 0.0122,0.36163 0.02907,0.49091 -0.01017,0.0339 -0.02045,0.0743 -0.03085,0.12122 -0.0104,0.0469 -0.02091,0.10022 -0.03154,0.15992 -0.02125,0.1194 -0.04294,0.26425 -0.06505,0.43382 -0.04424,0.33929 -0.09014,0.77754 -0.137523,1.309 -0.09484,1.06387 -0.195595,2.50115 -0.300705,4.26586 -0.210566,3.53521 -0.438644,8.38469 -0.671883,14.18138 -0.46818,11.63572 -0.956902,27.07998 -1.368819,43.43302 -0.4140816,16.43899 -0.7502277,33.7802 -0.9129415,49.18618 -0.081661,7.73177 -0.119615,14.97278 -0.1020342,21.37279 0.017628,6.41701 0.091075,11.98551 0.2321099,16.35768 0.1414049,4.38357 0.8135888,8.25765 1.8777628,11.68152 1.067185,3.43352 2.529129,6.41616 4.247526,9.00699 3.450792,5.20273 7.942516,8.83569 12.374292,11.36814 4.458955,2.54796 8.877123,3.99327 12.162416,4.80141 3.311948,0.81471 5.489855,0.98853 5.489857,0.98853 0,0 81.106628,0.42664 164.942818,0.70609 42.57501,0.14192 85.97683,0.24714 121.02397,0.24714 17.62078,0 33.10352,-0.0266 45.31303,-0.0883 6.12353,-0.0309 11.42137,-0.0707 15.7528,-0.12026 4.34074,-0.0497 7.70979,-0.1093 9.9669,-0.17983 4.52822,-0.14151 8.56981,-0.91198 12.17566,-2.14475 3.62188,-1.23826 6.80738,-2.94401 9.60725,-4.95147 5.63522,-4.04035 9.72606,-9.31561 12.67432,-14.51016 2.97653,-5.24436 4.80951,-10.44359 5.89585,-14.29834 1.1001,-3.90361 1.44748,-6.46073 1.44748,-6.46073 0,0 -0.14337,-13.08202 -0.2824,-27.89059 -0.0711,-7.57768 -0.14147,-15.62439 -0.19415,-22.86852 -0.0534,-7.33685 -0.0883,-13.80258 -0.0883,-18.15532 0,-4.40422 -1.03623,-7.681 -2.55959,-10.12362 -0.77041,-1.23531 -1.66754,-2.26068 -2.62357,-3.11231 -0.96307,-0.8579 -1.98796,-1.54134 -3.00749,-2.08627 -2.05962,-1.10082 -4.11332,-1.64487 -5.63111,-1.91528 -1.54841,-0.27586 -2.55958,-0.27361 -2.55959,-0.27361 -77.61935,0 -152.48286,0 -224.25444,0 -2.26575,0.0631 -4.31767,0.36946 -6.19475,0.86735 -1.89892,0.50369 -3.62256,1.20443 -5.20852,2.05084 -3.22412,1.72065 -5.90919,4.06062 -8.33078,6.60518 -2.46002,2.58494 -4.75783,5.50659 -7.00317,8.19831 -2.35266,2.82038 -4.71056,5.47004 -7.42045,7.69759 -0.94554,0.20601 -1.7636,0.56504 -2.55129,0.90596 -0.82898,0.35878 -1.62627,0.69843 -2.56454,0.89121 -0.96887,0.19906 -2.05402,0.23234 -3.38804,-0.0238 -1.38955,-0.26677 -3.02647,-0.84386 -5.02174,-1.839 -1.99948,-2.51614 -3.94339,-5.44933 -5.77255,-8.23282 -1.98415,-3.01933 -3.81536,-5.8333 -5.74508,-8.38394 -0.9942,-1.3141 -1.98341,-2.51513 -2.98372,-3.58045 -1.03408,-1.10127 -2.07065,-2.04738 -3.12265,-2.81639 -1.09102,-0.79754 -2.19083,-1.39878 -3.31015,-1.78507 -1.16511,-0.40209 -2.34427,-0.56875 -3.54627,-0.48647 z"
       id="path1" />
    <ellipse
       style="opacity:1;fill:#000000;fill-opacity:1"
       id="path2"
       cx="111.14006"
       cy="145.49066"
       rx="12.681753"
       ry="13.081178" />
    <ellipse
       style="opacity:1;fill:#000000;fill-opacity:1"
       id="path3"
       cx="175.24785"
       cy="139.19971"
       rx="12.48204"
       ry="12.382184" />
    <ellipse
       style="opacity:1;fill:#000000;fill-opacity:1"
       id="path4"
       cx="166.6602"
       cy="95.762207"
       rx="11.882902"
       ry="11.483477" />
    <ellipse
       style="opacity:1;fill:#000000;fill-opacity:1"
       id="path5"
       cx="233.6638"
       cy="80.584045"
       rx="12.581897"
       ry="13.081178" />
    <ellipse
       style="opacity:1;fill:#000000;fill-opacity:1"
       id="path6"
       cx="293.47772"
       cy="110.04166"
       rx="13.28089"
       ry="13.181034" />
    <ellipse
       style="opacity:1;fill:#000000;fill-opacity:1"
       id="path7"
       cx="250.4397"
       cy="138.80029"
       rx="13.380747"
       ry="13.780172" />
    <circle
       style="opacity:1;fill:#000000;fill-opacity:1"
       id="path8"
       cx="343.6026"
       cy="137.29453"
       r="13.909989" />
    <path
       d="m 455.2356,56.164685 c -15.8164,21.888815 -16.3814,31.067997 -16.3814,31.067997 0,0 -3.954,14.404248 6.7786,16.240098 12.5307,2.14341 26.4078,-38.41135 26.4078,-38.41135 0,0 -2.4008,-15.675217 -16.805,-8.896745 z"
       id="path10" />
    <path
       d="m 455.2356,56.164685 c -15.8164,21.888815 -16.3814,31.067997 -16.3814,31.067997 0,0 -3.954,14.404248 6.7786,16.240098 12.5307,2.14341 26.4078,-38.41135 26.4078,-38.41135 0,0 -2.4008,-15.675217 -16.805,-8.896745 z"
       id="path12"
       style="fill:#000000" />
    <path
       style="opacity:0.5;fill:#000000;fill-opacity:1;fill-rule:nonzero;stroke:none"
       d="m 1007.8368,83.707211 c -1.6228,3.85413 -2.2363,6.491324 -2.2978,7.489006 l 0.017,-0.101637 c -0.2601,0.947803 -0.3978,1.885132 -0.4774,2.440955 -0.209,1.459902 -0.3653,3.434709 -0.1451,5.45337 0.1104,1.012155 0.3162,2.043615 0.6604,3.031725 0.4311,1.2377 1.0807,2.41274 2.0375,3.40036 1.2041,1.2429 2.8537,2.15445 5.1011,2.53888 2.7214,0.46551 5.4342,-0.92442 7.9833,-3.29867 1.0185,-0.94869 2.0222,-2.06432 3.001,-3.29799 0.8812,-1.11074 1.7453,-2.321001 2.5865,-3.598128 1.5137,-2.298255 2.9573,-4.819715 4.2972,-7.379973 1.0721,-2.048486 2.0791,-4.12414 3.0039,-6.133339 1.8494,-4.017997 3.3721,-7.775068 4.4324,-10.527285 0.9178,-2.382111 0.628,-1.488476 1.6609,-4.506926 a 1006.7888,1006.7888 0 0 0 0.039,-0.114625 9.9977362,9.9977362 0 0 0 -0.018,-0.122948 c -0.3919,-2.559153 -1.8206,-5.244656 -1.8206,-5.244656 -0.357,-0.664915 -0.7803,-1.337823 -1.2806,-1.977858 -2.554,-3.267577 -6.9927,-5.541855 -14.4109,-2.050943 a 25.538927,25.538927 0 0 0 -0.1171,0.05547 222.90354,222.90354 0 0 0 -0.075,0.104095 c -7.9254,10.968241 -12.0416,18.768762 -14.1774,23.841113 z m 27.9928,-21.333916 c 0.922,1.179577 1.5719,2.495821 2.0209,3.659539 0.089,0.23028 0.6771,1.775575 0.8798,3.098546 l 0.021,-0.237573 c -0.8684,2.53793 -0.6344,1.816469 -1.421,3.879519 -0.9131,2.394558 -2.2286,5.692007 -3.8394,9.304846 -2.1488,4.819835 -4.8138,10.182285 -7.7477,14.715263 -1.8319,2.830371 -3.7561,5.316855 -5.7092,7.136005 -2.435,2.26804 -4.8423,3.4366 -7.1331,3.04475 -5.086,-0.86997 -6.6604,-4.67282 -7.0004,-8.361544 -0.172,-1.865635 -0.018,-3.677941 0.1821,-5.033551 0.075,-0.507234 0.2034,-1.366577 0.4376,-2.219805 a 11.363952,11.363952 0 0 1 0.014,-0.05178 2.3845074,2.3845074 0 0 1 0,-0.04985 c 0.024,-0.39835 0.1755,-1.221026 0.5308,-2.467332 0.4894,-1.71649 1.4239,-4.358183 3.2024,-8.021098 2.3715,-4.884608 6.2416,-11.580985 12.5544,-20.317445 l -0.1924,0.159569 c 6.986,-3.28756 10.9498,-1.113466 13.1972,1.761948 z"
       id="path9"
       transform="translate(-567.1839,-3.9942529)" />
    <text
       xml:space="preserve"
       style="font-size:48px;line-height:1.4;white-space:pre;inline-size:35.09;opacity:1;fill:#000000;fill-opacity:1;fill-rule:nonzero"
       x="506.69077"
       y="117.77595"
       id="text14"
       transform="matrix(2.2825961,-0.11936935,-0.08887467,2.7795301,-683.17306,-83.319301)"><tspan
         x="506.69077"
         y="117.77595"
         id="tspan2"><tspan
           style="font-weight:bold;font-family:'Comic Sans MS';-inkscape-font-specification:'Comic Sans MS Bold'"
           id="tspan1">S</tspan></tspan></text>
  </g>
</svg>
